<svg width="40" height="40" viewBox="0 0 40 40" fill="none" xmlns="http://www.w3.org/2000/svg">
<path d="M0 6C0 2.68629 2.68629 0 6 0H34C37.3137 0 40 2.68629 40 6V34C40 37.3137 37.3137 40 34 40H6C2.68629 40 0 37.3137 0 34V6Z" fill="#F4F6FA"/>
<path d="M14.8898 26C14.7938 26 14.7038 25.964 14.6198 25.892C14.5478 25.82 14.5118 25.73 14.5118 25.622C14.5118 25.574 14.5238 25.52 14.5478 25.46L18.8858 13.85C18.9218 13.73 18.9878 13.628 19.0838 13.544C19.1918 13.448 19.3358 13.4 19.5158 13.4H21.4778C21.6578 13.4 21.7958 13.448 21.8918 13.544C21.9878 13.628 22.0598 13.73 22.1078 13.85L26.4458 25.46C26.4578 25.52 26.4638 25.574 26.4638 25.622C26.4638 25.73 26.4278 25.82 26.3558 25.892C26.2838 25.964 26.1998 26 26.1038 26H24.5378C24.3698 26 24.2438 25.964 24.1598 25.892C24.0878 25.808 24.0398 25.73 24.0158 25.658L23.1698 23.462H17.8238L16.9778 25.658C16.9538 25.73 16.8998 25.808 16.8158 25.892C16.7438 25.964 16.6238 26 16.4558 26H14.8898ZM18.4538 21.392H22.5398L20.4878 15.83L18.4538 21.392Z" fill="#626C7F"/>
</svg>
