<svg width="40" height="40" viewBox="0 0 40 40" fill="none" xmlns="http://www.w3.org/2000/svg">
<path d="M0 6C0 2.68629 2.68629 0 6 0H34C37.3137 0 40 2.68629 40 6V34C40 37.3137 37.3137 40 34 40H6C2.68629 40 0 37.3137 0 34V6Z" fill="#F4F6FA"/>
<path d="M16.1661 26C16.0461 26 15.9441 25.958 15.8601 25.874C15.7761 25.79 15.7341 25.688 15.7341 25.568V13.85C15.7341 13.718 15.7761 13.61 15.8601 13.526C15.9441 13.442 16.0461 13.4 16.1661 13.4H21.3861C22.3581 13.4 23.1501 13.55 23.7621 13.85C24.3741 14.138 24.8241 14.54 25.1121 15.056C25.4121 15.572 25.5621 16.172 25.5621 16.856C25.5621 17.312 25.4781 17.714 25.3101 18.062C25.1541 18.398 24.9561 18.674 24.7161 18.89C24.4881 19.106 24.2601 19.274 24.0321 19.394C24.5001 19.61 24.9141 19.97 25.2741 20.474C25.6341 20.978 25.8141 21.578 25.8141 22.274C25.8141 22.994 25.6521 23.636 25.3281 24.2C25.0041 24.764 24.5241 25.208 23.8881 25.532C23.2521 25.844 22.4661 26 21.5301 26H16.1661ZM18.2361 24.092H21.2421C21.8901 24.092 22.3821 23.918 22.7181 23.57C23.0541 23.21 23.2221 22.778 23.2221 22.274C23.2221 21.746 23.0481 21.308 22.7001 20.96C22.3641 20.612 21.8781 20.438 21.2421 20.438H18.2361V24.092ZM18.2361 18.566H21.0621C21.6981 18.566 22.1721 18.416 22.4841 18.116C22.8081 17.804 22.9701 17.402 22.9701 16.91C22.9701 16.406 22.8081 16.016 22.4841 15.74C22.1721 15.452 21.6981 15.308 21.0621 15.308H18.2361V18.566Z" fill="#626C7F"/>
</svg>
