<svg width="40" height="40" viewBox="0 0 40 40" fill="none" xmlns="http://www.w3.org/2000/svg">
<path d="M0 6C0 2.68629 2.68629 0 6 0H34C37.3137 0 40 2.68629 40 6V34C40 37.3137 37.3137 40 34 40H6C2.68629 40 0 37.3137 0 34V6Z" fill="#F4F6FA"/>
<path d="M20.6117 26.18C19.4957 26.18 18.5477 25.988 17.7677 25.604C16.9997 25.208 16.4117 24.65 16.0037 23.93C15.5957 23.198 15.3677 22.322 15.3197 21.302C15.3077 20.81 15.3017 20.282 15.3017 19.718C15.3017 19.154 15.3077 18.614 15.3197 18.098C15.3677 17.09 15.5957 16.22 16.0037 15.488C16.4237 14.756 17.0177 14.198 17.7857 13.814C18.5657 13.418 19.5077 13.22 20.6117 13.22C21.4277 13.22 22.1597 13.328 22.8077 13.544C23.4557 13.76 24.0077 14.06 24.4637 14.444C24.9197 14.816 25.2737 15.254 25.5257 15.758C25.7777 16.262 25.9097 16.808 25.9217 17.396C25.9337 17.504 25.8977 17.594 25.8137 17.666C25.7417 17.738 25.6517 17.774 25.5437 17.774H23.8337C23.7017 17.774 23.5937 17.744 23.5097 17.684C23.4257 17.612 23.3657 17.498 23.3297 17.342C23.1377 16.55 22.8077 16.01 22.3397 15.722C21.8717 15.434 21.2897 15.29 20.5937 15.29C19.7897 15.29 19.1477 15.518 18.6677 15.974C18.1877 16.418 17.9297 17.156 17.8937 18.188C17.8577 19.172 17.8577 20.18 17.8937 21.212C17.9297 22.244 18.1877 22.988 18.6677 23.444C19.1477 23.888 19.7897 24.11 20.5937 24.11C21.2897 24.11 21.8717 23.966 22.3397 23.678C22.8077 23.378 23.1377 22.838 23.3297 22.058C23.3657 21.89 23.4257 21.776 23.5097 21.716C23.5937 21.656 23.7017 21.626 23.8337 21.626H25.5437C25.6517 21.626 25.7417 21.662 25.8137 21.734C25.8977 21.806 25.9337 21.896 25.9217 22.004C25.9097 22.592 25.7777 23.138 25.5257 23.642C25.2737 24.146 24.9197 24.59 24.4637 24.974C24.0077 25.346 23.4557 25.64 22.8077 25.856C22.1597 26.072 21.4277 26.18 20.6117 26.18Z" fill="#626C7F"/>
</svg>
